<svg width="11" height="6" viewBox="0 0 11 6" fill="none" xmlns="http://www.w3.org/2000/svg">
<path d="M0.726914 0.469712C0.86756 0.329109 1.05829 0.250122 1.25716 0.250122C1.45604 0.250122 1.64677 0.329109 1.78741 0.469712L5.49991 4.18221L9.21241 0.469712C9.35387 0.333093 9.54332 0.257497 9.73996 0.259206C9.93661 0.260915 10.1247 0.339792 10.2638 0.478848C10.4028 0.617904 10.4817 0.806013 10.4834 1.00266C10.4851 1.19931 10.4095 1.38876 10.2729 1.53021L6.03016 5.77296C5.88952 5.91357 5.69879 5.99255 5.49991 5.99255C5.30104 5.99255 5.11031 5.91357 4.96966 5.77296L0.726914 1.53021C0.586311 1.38957 0.507324 1.19883 0.507324 0.999962C0.507324 0.801089 0.586311 0.610358 0.726914 0.469712Z" fill="black"/>
</svg>
