<svg width="23" height="23" viewBox="0 0 23 23" fill="none" xmlns="http://www.w3.org/2000/svg">
<circle cx="11.5" cy="11.5" r="11" fill="#F7F7F7"/>
<path d="M6.72691 9.46971C6.86756 9.32911 7.05829 9.25012 7.25716 9.25012C7.45604 9.25012 7.64677 9.32911 7.78741 9.46971L11.4999 13.1822L15.2124 9.46971C15.3539 9.33309 15.5433 9.2575 15.74 9.25921C15.9366 9.26091 16.1247 9.33979 16.2638 9.47885C16.4028 9.6179 16.4817 9.80601 16.4834 10.0027C16.4851 10.1993 16.4095 10.3888 16.2729 10.5302L12.0302 14.773C11.8895 14.9136 11.6988 14.9926 11.4999 14.9926C11.301 14.9926 11.1103 14.9136 10.9697 14.773L6.72691 10.5302C6.58631 10.3896 6.50732 10.1988 6.50732 9.99996C6.50732 9.80109 6.58631 9.61036 6.72691 9.46971V9.46971Z" fill="black"/>
</svg>
