<svg width="36" height="24" viewBox="0 0 36 24" fill="none" xmlns="http://www.w3.org/2000/svg">
<g clip-path="url(#clip0_393_383)">
<path d="M31.43 4H10V6H31.43C31.6952 6 31.9496 5.89464 32.1371 5.70711C32.3246 5.51957 32.43 5.26522 32.43 5C32.43 4.73478 32.3246 4.48043 32.1371 4.29289C31.9496 4.10536 31.6952 4 31.43 4Z" fill="black"/>
<path d="M31.43 12H10V14H31.43C31.6952 14 31.9496 13.8946 32.1371 13.7071C32.3246 13.5196 32.43 13.2652 32.43 13C32.43 12.7348 32.3246 12.4804 32.1371 12.2929C31.9496 12.1054 31.6952 12 31.43 12Z" fill="black"/>
<path d="M17.4997 -8.58003C17.3984 -8.68253 17.2777 -8.7639 17.1446 -8.81944C17.0116 -8.87497 16.8689 -8.90356 16.7247 -8.90356C16.5806 -8.90356 16.4379 -8.87497 16.3048 -8.81944C16.1718 -8.7639 16.0511 -8.68253 15.9497 -8.58003L7.88973 -0.520034L4.50973 -4.16003C4.31082 -4.37353 4.03524 -4.49927 3.74362 -4.50958C3.452 -4.5199 3.16823 -4.41395 2.95473 -4.21503C2.74123 -4.01612 2.6155 -3.74054 2.60518 -3.44892C2.59487 -3.15731 2.70082 -2.87353 2.89973 -2.66003L7.83973 2.63997L17.4997 -7.00003C17.6056 -7.10259 17.6897 -7.22536 17.7472 -7.36107C17.8047 -7.49678 17.8343 -7.64266 17.8343 -7.79003C17.8343 -7.93741 17.8047 -8.08329 17.7472 -8.21899C17.6897 -8.3547 17.6056 -8.47748 17.4997 -8.58003Z" fill="black"/>
</g>
<defs>
<clipPath id="clip0_393_383">
<rect width="36" height="36" fill="white" transform="translate(0 -12)"/>
</clipPath>
</defs>
</svg>
