<svg width="26" height="26" viewBox="0 0 26 26" fill="none" xmlns="http://www.w3.org/2000/svg">
<path d="M13 24.375C6.71836 24.375 1.625 19.2816 1.625 13C1.625 6.71836 6.71836 1.625 13 1.625C19.2816 1.625 24.375 6.71836 24.375 13C24.375 19.2816 19.2816 24.375 13 24.375ZM13 3.55469C7.78477 3.55469 3.55469 7.78477 3.55469 13C3.55469 18.2152 7.78477 22.4453 13 22.4453C18.2152 22.4453 22.4453 18.2152 22.4453 13C22.4453 7.78477 18.2152 3.55469 13 3.55469Z" fill="black"/>
<path d="M11.7812 8.53125C11.7813 8.20802 11.9097 7.89802 12.1382 7.66946C12.3668 7.4409 12.6768 7.3125 13 7.3125C13.3232 7.3125 13.6332 7.4409 13.8618 7.66946C14.0903 7.89802 14.2188 8.20802 14.2188 8.53125C14.2188 8.85448 14.0903 9.16448 13.8618 9.39304C13.6332 9.6216 13.3232 9.75 13 9.75C12.6768 9.75 12.3668 9.6216 12.1382 9.39304C11.9097 9.16448 11.7813 8.85448 11.7812 8.53125ZM12.3906 11.375H13.6094C13.7211 11.375 13.8125 11.4664 13.8125 11.5781V18.4844C13.8125 18.5961 13.7211 18.6875 13.6094 18.6875H12.3906C12.2789 18.6875 12.1875 18.5961 12.1875 18.4844V11.5781C12.1875 11.4664 12.2789 11.375 12.3906 11.375Z" fill="black"/>
</svg>
