<svg width="21" height="20" viewBox="0 0 21 20" fill="none" xmlns="http://www.w3.org/2000/svg">
<path d="M8.8125 15.4063C8.8125 15.6301 8.72361 15.8447 8.56537 16.0029C8.40714 16.1612 8.19253 16.2501 7.96875 16.2501H5.4375V18.7813C5.4375 19.0051 5.34861 19.2197 5.19037 19.3779C5.03214 19.5362 4.81753 19.6251 4.59375 19.6251C4.36997 19.6251 4.15536 19.5362 3.99713 19.3779C3.8389 19.2197 3.75 19.0051 3.75 18.7813V16.2501H1.21875C0.994974 16.2501 0.780363 16.1612 0.622129 16.0029C0.463895 15.8447 0.375 15.6301 0.375 15.4063C0.375 15.1825 0.463895 14.9679 0.622129 14.8097C0.780363 14.6515 0.994974 14.5626 1.21875 14.5626H3.75V12.0313C3.75 11.8075 3.8389 11.5929 3.99713 11.4347C4.15536 11.2765 4.36997 11.1876 4.59375 11.1876C4.81753 11.1876 5.03214 11.2765 5.19037 11.4347C5.34861 11.5929 5.4375 11.8075 5.4375 12.0313V14.5626H7.96875C8.19253 14.5626 8.40714 14.6515 8.56537 14.8097C8.72361 14.9679 8.8125 15.1825 8.8125 15.4063ZM7.96875 2.75006H1.21875C0.994974 2.75006 0.780363 2.83895 0.622129 2.99719C0.463895 3.15542 0.375 3.37003 0.375 3.59381C0.375 3.81759 0.463895 4.0322 0.622129 4.19043C0.780363 4.34866 0.994974 4.43756 1.21875 4.43756H7.96875C8.19253 4.43756 8.40714 4.34866 8.56537 4.19043C8.72361 4.0322 8.8125 3.81759 8.8125 3.59381C8.8125 3.37003 8.72361 3.15542 8.56537 2.99719C8.40714 2.83895 8.19253 2.75006 7.96875 2.75006ZM13.0312 14.5731H19.7812C20.005 14.5731 20.2196 14.4842 20.3779 14.326C20.5361 14.1677 20.625 13.9531 20.625 13.7294C20.625 13.5056 20.5361 13.291 20.3779 13.1327C20.2196 12.9745 20.005 12.8856 19.7812 12.8856H13.0312C12.8075 12.8856 12.5929 12.9745 12.4346 13.1327C12.2764 13.291 12.1875 13.5056 12.1875 13.7294C12.1875 13.9531 12.2764 14.1677 12.4346 14.326C12.5929 14.4842 12.8075 14.5731 13.0312 14.5731ZM19.7812 16.2395H13.0312C12.8075 16.2395 12.5929 16.3284 12.4346 16.4866C12.2764 16.6449 12.1875 16.8595 12.1875 17.0833C12.1875 17.307 12.2764 17.5217 12.4346 17.6799C12.5929 17.8381 12.8075 17.927 13.0312 17.927H19.7812C20.005 17.927 20.2196 17.8381 20.3779 17.6799C20.5361 17.5217 20.625 17.307 20.625 17.0833C20.625 16.8595 20.5361 16.6449 20.3779 16.4866C20.2196 16.3284 20.005 16.2395 19.7812 16.2395ZM13.2738 6.72623C13.4351 6.88217 13.6507 6.96935 13.875 6.96935C14.0993 6.96935 14.3149 6.88217 14.4762 6.72623L16.4062 4.78561L18.3363 6.72623C18.4976 6.88217 18.7132 6.96935 18.9375 6.96935C19.1618 6.96935 19.3774 6.88217 19.5387 6.72623C19.6971 6.56626 19.786 6.35021 19.786 6.12506C19.786 5.89991 19.6971 5.68386 19.5387 5.52389L17.598 3.59381L19.5387 1.66373C19.6732 1.49979 19.742 1.29167 19.7316 1.07985C19.7212 0.868021 19.6323 0.667638 19.4824 0.517674C19.3324 0.367711 19.132 0.278889 18.9202 0.268485C18.7084 0.258082 18.5003 0.326841 18.3363 0.461388L16.4062 2.40201L14.4762 0.461388C14.3122 0.326841 14.1041 0.258082 13.8923 0.268485C13.6805 0.278889 13.4801 0.367711 13.3301 0.517674C13.1802 0.667638 13.0913 0.868021 13.0809 1.07985C13.0705 1.29167 13.1393 1.49979 13.2738 1.66373L15.2145 3.59381L13.2738 5.52389C13.1154 5.68386 13.0265 5.89991 13.0265 6.12506C13.0265 6.35021 13.1154 6.56626 13.2738 6.72623Z" fill="black"/>
</svg>
