<svg width="24" height="25" viewBox="0 0 24 25" fill="none" xmlns="http://www.w3.org/2000/svg">
<path d="M6 14V12.5H7.5V14H6ZM1.5 6.5C1.5 5.70435 1.81607 4.94129 2.37868 4.37868C2.94129 3.81607 3.70435 3.5 4.5 3.5H15C15.7956 3.5 16.5587 3.81607 17.1213 4.37868C17.6839 4.94129 18 5.70435 18 6.5V16.25C18 16.4489 18.079 16.6397 18.2197 16.7803C18.3603 16.921 18.5511 17 18.75 17C18.9489 17 19.1397 16.921 19.2803 16.7803C19.421 16.6397 19.5 16.4489 19.5 16.25V6.5C20.2956 6.5 21.0587 6.81607 21.6213 7.37868C22.1839 7.94129 22.5 8.70435 22.5 9.5V16.25C22.5 17.2446 22.1049 18.1984 21.4017 18.9017C20.6984 19.6049 19.7446 20 18.75 20H5.25C4.25544 20 3.30161 19.6049 2.59835 18.9017C1.89509 18.1984 1.5 17.2446 1.5 16.25V6.5ZM5.25 8C5.05109 8 4.86032 8.07902 4.71967 8.21967C4.57902 8.36032 4.5 8.55109 4.5 8.75C4.5 8.94891 4.57902 9.13968 4.71967 9.28033C4.86032 9.42098 5.05109 9.5 5.25 9.5H14.25C14.4489 9.5 14.6397 9.42098 14.7803 9.28033C14.921 9.13968 15 8.94891 15 8.75C15 8.55109 14.921 8.36032 14.7803 8.21967C14.6397 8.07902 14.4489 8 14.25 8H5.25ZM5.25 11C5.05109 11 4.86032 11.079 4.71967 11.2197C4.57902 11.3603 4.5 11.5511 4.5 11.75V14.75C4.5 14.9489 4.57902 15.1397 4.71967 15.2803C4.86032 15.421 5.05109 15.5 5.25 15.5H8.25C8.44891 15.5 8.63968 15.421 8.78033 15.2803C8.92098 15.1397 9 14.9489 9 14.75V11.75C9 11.5511 8.92098 11.3603 8.78033 11.2197C8.63968 11.079 8.44891 11 8.25 11H5.25ZM11.25 11C11.0511 11 10.8603 11.079 10.7197 11.2197C10.579 11.3603 10.5 11.5511 10.5 11.75C10.5 11.9489 10.579 12.1397 10.7197 12.2803C10.8603 12.421 11.0511 12.5 11.25 12.5H14.25C14.4489 12.5 14.6397 12.421 14.7803 12.2803C14.921 12.1397 15 11.9489 15 11.75C15 11.5511 14.921 11.3603 14.7803 11.2197C14.6397 11.079 14.4489 11 14.25 11H11.25ZM11.25 14C11.0511 14 10.8603 14.079 10.7197 14.2197C10.579 14.3603 10.5 14.5511 10.5 14.75C10.5 14.9489 10.579 15.1397 10.7197 15.2803C10.8603 15.421 11.0511 15.5 11.25 15.5H14.25C14.4489 15.5 14.6397 15.421 14.7803 15.2803C14.921 15.1397 15 14.9489 15 14.75C15 14.5511 14.921 14.3603 14.7803 14.2197C14.6397 14.079 14.4489 14 14.25 14H11.25Z" fill="black"/>
</svg>
