<svg width="24" height="20" viewBox="0 0 24 20" fill="none" xmlns="http://www.w3.org/2000/svg">
<g clip-path="url(#clip0_342_1389)">
<path d="M7.80006 13.7C7.71044 13.7 7.62081 13.7131 7.53531 13.7409C7.04931 13.8988 6.53819 14 6.00006 14C5.46194 14 4.95081 13.8988 4.46444 13.7409C4.37894 13.7131 4.28969 13.7 4.20006 13.7C1.87281 13.7 -0.0123144 15.593 6.05805e-05 17.9233C0.00531058 18.908 0.814935 19.7 1.80006 19.7H10.2001C11.1852 19.7 11.9948 18.908 12.0001 17.9233C12.0124 15.593 10.1273 13.7 7.80006 13.7ZM6.00006 12.5C7.98831 12.5 9.60006 10.8883 9.60006 8.9C9.60006 6.91175 7.98831 5.3 6.00006 5.3C4.01181 5.3 2.40006 6.91175 2.40006 8.9C2.40006 10.8883 4.01181 12.5 6.00006 12.5ZM22.2001 0.5H7.80006C6.80744 0.5 6.00006 1.33438 6.00006 2.35963V4.1C6.87831 4.1 7.69131 4.35425 8.40006 4.7675V2.9H21.6001V13.7H19.2001V11.3H14.4001V13.7H11.5411C12.2573 14.3259 12.7831 15.1524 13.0294 16.1H22.2001C23.1927 16.1 24.0001 15.2656 24.0001 14.2404V2.35963C24.0001 1.33438 23.1927 0.5 22.2001 0.5Z" fill="black"/>
</g>
<defs>
<clipPath id="clip0_342_1389">
<rect width="24" height="19.2" fill="white" transform="translate(0 0.5)"/>
</clipPath>
</defs>
</svg>
