<svg width="42" height="42" viewBox="0 0 42 42" fill="none" xmlns="http://www.w3.org/2000/svg">
<path d="M37.2463 14.4825L26.8324 12.9691L22.1771 3.53136C22.05 3.27296 21.8408 3.06378 21.5824 2.93664C20.9344 2.61671 20.1469 2.88332 19.8229 3.53136L15.1676 12.9691L4.75371 14.4825C4.4666 14.5236 4.2041 14.6589 4.00313 14.864C3.76016 15.1137 3.62627 15.4497 3.63088 15.7981C3.6355 16.1465 3.77824 16.4788 4.02773 16.722L11.5623 24.0679L9.78223 34.4407C9.74048 34.682 9.76719 34.9302 9.8593 35.1571C9.95142 35.384 10.1053 35.5805 10.3034 35.7244C10.5015 35.8683 10.736 35.9538 10.9803 35.9713C11.2246 35.9887 11.4688 35.9373 11.6854 35.823L21 30.9257L30.3146 35.823C30.5689 35.9583 30.8643 36.0034 31.1473 35.9542C31.8609 35.8312 32.3408 35.1544 32.2178 34.4407L30.4377 24.0679L37.9723 16.722C38.1773 16.521 38.3127 16.2585 38.3537 15.9714C38.4645 15.2536 37.9641 14.5892 37.2463 14.4825Z" fill="#B32D2D"/>
</svg>
