<svg width="354" height="357" viewBox="0 0 354 357" fill="none" xmlns="http://www.w3.org/2000/svg">
<path d="M202.448 356C210.586 354.368 251.954 332.197 271.621 321.316L180.069 356L304.172 300.914L157.69 356L304.172 286.632L114.965 349.879L332.655 262.149L80.3793 343.759L332.655 253.988L74.2758 335.598M74.2758 335.598L332.655 231.546M74.2758 335.598L318.414 231.546L62.0689 315.195L332.655 215.224L45.7931 294.793L340.793 194.822L31.5517 276.431L353 170.339L1.03443 253.988L340.793 149.937C226.184 179.86 -2.22075 239.299 1.03443 237.667C4.2896 236.034 228.897 167.619 340.793 133.615L3.06888 219.305L332.655 121.374L3.06888 202.983L318.414 109.132L1.03443 164.218L304.172 96.8908C203.805 112.533 5.51026 143.408 15.2758 141.776C25.0413 140.144 216.011 98.931 310.276 78.5287L31.5517 115.253L318.414 62.2069C211.943 73.7682 2.25506 96.8908 15.2758 96.8908C28.2965 96.8908 201.092 60.1667 285.862 41.8046L39.6896 78.5287C114.965 62.2069 262.262 29.9713 249.241 31.6034C236.221 33.2356 119.034 44.5249 62.0689 49.9655L202.448 9.16092L70.2068 25.4828L165.828 1" stroke="#FF7070" stroke-opacity="0.47" stroke-width="2"/>
<path d="M179.957 269.246L173.121 267.684C172.861 265.926 172.73 263.322 172.73 259.871C172.73 256.095 172.828 251.342 173.023 245.613L172.828 237.02L172.633 232.234C172.698 226.961 172.958 216.74 173.414 201.57L173.512 187.117L173.414 171.395L171.168 174.422C166.741 180.607 163.453 184.741 161.305 186.824L154.273 183.699C152.646 182.072 151.311 180.932 150.27 180.281C148.707 179.37 147.047 177.71 145.289 175.301C145.81 173.738 147.633 170.874 150.758 166.707C152.451 164.493 153.785 162.573 154.762 160.945C157.04 157.365 160.068 153.361 163.844 148.934C165.862 146.525 167.652 144.279 169.215 142.195C169.28 141.219 170.191 139.493 171.949 137.02C172.73 135.913 173.479 134.773 174.195 133.602L175.855 131.16C178.46 129.923 180.868 129.272 183.082 129.207C185.361 129.077 186.728 129.012 187.184 129.012C190.439 129.012 193.076 129.598 195.094 130.77C195.354 131.355 195.582 133.634 195.777 137.605C195.973 141.512 196.103 145.451 196.168 149.422C196.298 153.393 196.363 156.616 196.363 159.09C196.363 167.944 196.135 173.51 195.68 175.789L196.07 189.266C196.266 196.232 196.363 201.733 196.363 205.77C196.363 209.936 196.266 214.949 196.07 220.809C196.07 221.85 195.973 223.217 195.777 224.91C195.647 226.082 195.452 226.961 195.191 227.547V230.184L195.387 242.195C195.387 245.385 195.289 248.315 195.094 250.984C194.898 252.807 194.801 255.118 194.801 257.918C194.801 263.061 194.508 266.414 193.922 267.977C191.643 268.758 189.56 269.148 187.672 269.148C187.086 269.148 186.467 269.116 185.816 269.051C185.23 268.986 184.579 268.953 183.863 268.953C182.626 268.953 181.324 269.051 179.957 269.246Z" fill="black"/>
</svg>
