<svg width="357" height="360" viewBox="0 0 357 360" fill="none" xmlns="http://www.w3.org/2000/svg">
<path d="M204.165 359C212.372 357.354 254.093 334.996 273.927 324.023L181.595 359L306.756 303.448L159.025 359L306.756 289.046L115.937 352.828L335.482 264.356L81.0558 346.655L335.482 256.126L74.9003 338.425M74.9003 338.425L335.482 233.494M74.9003 338.425L321.119 233.494L62.5894 317.851L335.482 217.034L46.1748 297.276L343.689 196.46L31.8121 278.759L356 171.77L1.03472 256.126L343.689 151.195C228.103 181.372 -2.2482 241.313 1.03472 239.667C4.31764 238.021 230.839 169.027 343.689 134.736L3.08651 221.149L335.482 122.391L3.08651 204.69L321.119 110.046L1.03472 165.598L306.756 97.7011C205.533 113.475 5.5487 144.611 15.3974 142.966C25.2462 141.32 217.844 99.7586 312.912 79.1839L31.8121 116.218L321.119 62.7241C213.74 74.3831 2.26576 97.7011 15.3974 97.7011C28.5291 97.7011 202.797 60.6667 288.29 42.1494L40.0193 79.1839C115.937 62.7241 264.489 30.2161 251.357 31.8621C238.225 33.508 120.04 44.8927 62.5894 50.3793L204.165 9.22989L70.7966 25.6897L167.232 1" stroke="#F2C112" stroke-opacity="0.47" stroke-width="2"/>
<path d="M182.08 267H163.134C149.397 267 141.78 266.967 140.283 266.902C138.395 266.902 136.376 265.926 134.228 263.973L135.693 249.422C136.409 249.422 136.767 248.966 136.767 248.055V247.566C136.767 247.241 136.832 246.818 136.962 246.297C137.093 245.776 137.809 245.027 139.111 244.051C140.413 243.009 141.65 242.293 142.822 241.902C144.97 241.251 148.29 238.419 152.783 233.406C159.879 225.398 165.901 217.618 170.849 210.066C173.909 205.379 175.862 202.84 176.708 202.449C176.904 200.691 178.499 197.892 181.494 194.051C182.665 192.553 183.675 191.121 184.521 189.754C192.008 177.579 195.751 169.148 195.751 164.461C195.361 161.727 194.807 159.708 194.091 158.406C193.375 157.039 192.366 155.704 191.064 154.402C190.478 153.816 189.859 153.133 189.208 152.352C186.995 149.878 184.521 148.641 181.787 148.641C179.899 148.641 177.75 149.064 175.341 149.91C171.37 151.473 168.733 153.751 167.431 156.746C166.194 159.741 165.348 163.419 164.892 167.781L164.794 168.27C162.125 169.051 154.899 169.441 143.115 169.441C142.333 169.311 141.78 169.018 141.455 168.562L141.259 167.879C142.561 161.629 145.165 154.272 149.072 145.809C153.043 137.345 157.731 131.583 163.134 128.523L180.419 123.641C181.136 123.771 182.177 123.868 183.544 123.934C195.133 123.934 203.499 127.97 208.642 136.043C212.809 141.186 215.511 147.924 216.747 156.258C217.073 158.406 217.236 160.555 217.236 162.703C217.236 168.953 215.901 175.333 213.232 181.844C210.693 187.312 205.322 196.264 197.119 208.699C188.981 221.134 181.038 232.56 173.29 242.977C179.02 242.846 184.293 242.781 189.111 242.781C193.928 242.781 197.249 242.879 199.072 243.074C200.504 243.204 202.197 243.27 204.15 243.27H206.201C211.539 243.27 215.022 243.562 216.65 244.148C217.952 247.208 218.603 249.943 218.603 252.352V252.645C218.603 254.533 218.896 256.648 219.482 258.992L218.603 266.219C216.52 266.544 213.232 266.707 208.74 266.707L202.392 266.609C200.374 266.544 198.193 266.512 195.849 266.512C194.547 266.512 193.115 266.577 191.552 266.707C189.99 266.772 188.492 266.805 187.06 266.805C186.279 266.805 185.465 266.837 184.619 266.902C183.772 266.967 182.926 267 182.08 267Z" fill="black"/>
</svg>
