<svg width="354" height="357" viewBox="0 0 354 357" fill="none" xmlns="http://www.w3.org/2000/svg">
<path d="M202.448 356C210.586 354.368 251.954 332.197 271.621 321.316L180.069 356L304.172 300.914L157.69 356L304.172 286.632L114.965 349.879L332.655 262.149L80.3793 343.759L332.655 253.988L74.2758 335.598M74.2758 335.598L332.655 231.546M74.2758 335.598L318.414 231.546L62.0689 315.195L332.655 215.224L45.7931 294.793L340.793 194.822L31.5517 276.431L353 170.339L1.03443 253.988L340.793 149.937C226.184 179.86 -2.22075 239.299 1.03443 237.667C4.2896 236.034 228.897 167.619 340.793 133.615L3.06888 219.305L332.655 121.374L3.06888 202.983L318.414 109.132L1.03443 164.218L304.172 96.8908C203.805 112.533 5.51026 143.408 15.2758 141.776C25.0413 140.144 216.011 98.931 310.276 78.5287L31.5517 115.253L318.414 62.2069C211.943 73.7682 2.25506 96.8908 15.2758 96.8908C28.2965 96.8908 201.092 60.1667 285.862 41.8046L39.6896 78.5287C114.965 62.2069 262.262 29.9713 249.241 31.6034C236.221 33.2356 119.034 44.5249 62.0689 49.9655L202.448 9.16092L70.2068 25.4828L165.828 1" stroke="#70A9FF" stroke-opacity="0.47" stroke-width="2"/>
<path d="M166.578 272.859C154.599 272.859 144.117 270.743 135.133 266.512C135.133 266.056 135.361 265.242 135.816 264.07C136.598 261.727 136.988 260.066 136.988 259.09C136.988 258.895 137.053 258.634 137.184 258.309C137.314 257.918 137.411 257.592 137.477 257.332C137.477 257.007 137.444 256.779 137.379 256.648C137.314 256.518 137.281 256.323 137.281 256.062C137.281 255.542 137.444 254.598 137.77 253.23C138.095 251.863 138.551 250.333 139.137 248.641C139.788 246.948 140.439 245.743 141.09 245.027C143.238 245.874 145.484 246.85 147.828 247.957C153.818 251.212 160.263 252.84 167.164 252.84C170.745 252.84 174.456 252.286 178.297 251.18C180.901 250.333 182.887 249.324 184.254 248.152C185.621 246.98 186.858 245.678 187.965 244.246L190.406 241.512C190.471 240.21 190.634 238.875 190.895 237.508C191.22 235.75 191.383 233.732 191.383 231.453C190.081 214.266 178.915 205.314 157.887 204.598C157.887 201.603 157.822 199.78 157.691 199.129C157.626 198.413 157.594 197.501 157.594 196.395V194.734C157.594 194.148 157.561 193.595 157.496 193.074C157.431 192.488 157.398 191.87 157.398 191.219C157.398 190.568 157.626 190.079 158.082 189.754C164.918 189.428 171.363 186.661 177.418 181.453C183.473 176.18 186.63 169.702 186.891 162.02C186.695 152.579 184.384 146.557 179.957 143.953C176.702 141.674 171.428 140.372 164.137 140.047L163.258 139.949C162.607 139.754 161.826 139.656 160.914 139.656C159.482 139.656 157.431 139.949 154.762 140.535C152.092 141.121 148.74 143.79 144.703 148.543C143.661 147.046 142.652 145.678 141.676 144.441C139.267 141.577 138.062 139.396 138.062 137.898C138.062 136.922 138.486 135.978 139.332 135.066C144.931 127.514 153.069 123.608 163.746 123.348H166.188C175.888 123.348 184.384 125.171 191.676 128.816C195.973 132.332 198.414 134.415 199 135.066C199.977 136.108 200.855 137.475 201.637 139.168C202.418 140.796 203.46 143.302 204.762 146.688C205.868 150.073 206.422 154.24 206.422 159.188C206.422 159.708 206.357 161.499 206.227 164.559C206.161 167.553 205.283 170.548 203.59 173.543C203.069 177.384 201.799 181.388 199.781 185.555C197.763 189.721 195.289 192.814 192.359 194.832C193.727 195.483 194.931 196.134 195.973 196.785C198.707 197.697 200.855 198.771 202.418 200.008C204.046 201.245 205.706 203.133 207.398 205.672C209.417 208.471 210.979 211.499 212.086 214.754C213.388 219.246 214.104 225.268 214.234 232.82C214.234 236.336 213.909 238.354 213.258 238.875C213.193 241.023 212.379 243.888 210.816 247.469C209.254 251.049 207.333 254.305 205.055 257.234C202.841 260.099 200.758 261.564 198.805 261.629C197.633 263.322 195.549 264.917 192.555 266.414C186.37 269.474 180.478 271.427 174.879 272.273C172.34 272.664 169.573 272.859 166.578 272.859Z" fill="black"/>
</svg>
