<svg width="310" height="586" viewBox="0 0 310 586" fill="none" xmlns="http://www.w3.org/2000/svg">
<path d="M88.7711 230.457L84.5432 217.749L97.608 225.228L93.0335 206.981L118.47 228.483L114.242 210.236L142.278 238.94L140.961 217.749L160.229 241.225L161.199 219.377L176.863 229.799L176.516 214.806L196.408 226.856V210.893L221.221 231.115L210.755 200.783L228.394 224.917" stroke="#D1485B" stroke-width="3" stroke-miterlimit="10" stroke-linecap="round" stroke-linejoin="round"/>
<path d="M58.4484 432.186L40.8438 387.208L78.6866 440.012L41.5023 359.195L98.2317 446.521L48.2253 337.45L119.128 449.118L68.2209 346.799L144.565 451.092L117.811 387.865L167.402 450.434L149.763 403.932L188.264 449.118L166.744 401.542L205.869 445.863L177.279 395.552L226.107 440.012L192.839 383.953L244.197 430.42L206.527 374.811L255.459 425.676L220.216 366.986L264.573 416.535L227.389 355.283L263.291 387.865L236.538 344.826L264.573 365.705L246.969 333.746L257.192 335.096" stroke="#D1485B" stroke-width="3" stroke-miterlimit="10" stroke-linecap="round" stroke-linejoin="round"/>
<path d="M260.969 303.032C258.578 307.084 259.271 310.858 259.895 314.77C262.875 333.953 266.445 353.101 268.42 372.422C269.737 385.303 268.663 398.46 268.663 411.48C268.663 411.722 268.524 411.999 268.559 412.207C270.95 420.656 264.989 424.741 259.583 428.931C248.736 437.38 236.261 442.574 223.265 446.729C220.008 447.767 216.715 448.772 213.562 449.741C214.74 482.67 215.918 515.322 217.131 548.839C221.983 551.159 227.736 553.895 233.419 556.699C237.751 558.812 241.182 561.893 243.157 566.395C244.612 569.719 245.098 573.181 242.568 576.124C239.934 579.206 236.261 578.964 233.003 577.544C221.013 572.177 212.384 563.486 207.983 550.917C207.601 549.809 207.532 548.493 207.636 547.316C208.19 540.737 209.473 534.193 209.299 527.649C208.78 505.246 207.809 482.878 206.908 460.475C206.804 457.601 206.181 454.762 205.695 451.403C174.368 457.636 143.56 458.12 112.024 453.619C112.371 461.064 112.821 467.608 112.96 474.187C113.376 492.642 113.584 511.132 114.034 529.588C114.242 537.448 115.143 545.273 115.178 553.133C115.178 556.145 114.381 559.608 112.752 562.101C107.207 570.654 99.9298 577.717 91.3355 583.188C88.771 584.815 85.3748 585.681 82.2906 585.958C77.8895 586.374 75.1864 583.673 75.4983 579.241C75.6716 576.678 76.6073 573.908 77.9935 571.727C82.4639 564.732 88.5978 559.469 96.3257 556.18C99.9298 554.656 103.603 553.341 107.692 551.748C105.613 518.75 108.524 485.786 104.989 452.58C99.4793 451.126 93.8999 450.087 88.5977 448.217C79.7955 445.136 71.0279 441.812 62.5029 438.003C58.0671 436.029 53.9779 433.051 50.0272 430.143C41.5369 423.91 36.7546 416.5 36.616 404.866C36.3041 375.642 38.1408 346.834 45.245 318.406C46.4233 313.628 46.3885 313.628 44.6211 308.226C40.8091 309.854 37.1358 311.931 33.1852 313.004C27.2939 314.563 21.1947 316.294 15.1995 316.329C5.91208 316.363 0.367343 310.027 0.0207975 300.712C-0.256439 293.095 2.2734 286.17 5.49627 279.452C13.2935 263.248 24.6602 249.674 37.6557 237.417C51.3442 224.502 66.1763 213.179 84.2659 206.877C86.1373 206.219 87.5928 204.35 89.8107 202.618C87.766 200.922 86.4145 199.606 84.8897 198.532C55.1214 177.376 37.8636 148.706 36.3388 112.211C34.7793 75.2999 49.4728 44.7948 79.2064 22.6691C146.713 -27.538 245.791 10.0307 261.108 92.3357C268.177 130.32 256.326 162.764 228.637 189.564C226.869 191.261 225.067 192.888 223.161 194.62C224.374 199.398 226.661 201.856 231.652 203.588C257.642 212.521 279.544 227.687 296.594 249.328C300.822 254.66 304.01 260.962 306.921 267.126C308.654 270.796 309.486 275.124 309.867 279.245C310.976 291.121 305.119 299.743 293.753 303.482C285.331 306.253 276.737 305.525 268.143 304.314C265.856 303.933 263.499 303.448 260.969 303.032ZM154.199 212.486C160.887 211.448 170.278 210.79 179.254 208.47C244.682 191.746 275.767 119.725 242.845 61.7613C212.869 8.95727 143.075 -8.97871 91.3008 22.773C46.4232 50.3003 29.9969 106.601 54.3591 153.034C74.7013 191.815 108.247 210.236 154.199 212.486ZM50.6164 291.537C53.5274 289.425 55.3641 287.901 57.3741 286.654C61.3247 284.231 65.206 281.426 69.4685 279.729C75.1518 277.444 80.0034 279.072 82.5679 283.123C85.2363 287.312 84.6471 293.406 80.3499 297.285C77.5083 299.847 73.9736 302.097 70.3695 303.275C64.8248 305.075 58.9682 305.872 52.3491 307.291C54.6017 312.624 56.3344 318.337 59.2453 323.323C79.9688 358.918 110.777 382.221 149.035 396.314C151.912 397.352 154.649 397.491 157.63 396.348C194.952 382.048 224.998 358.918 245.409 324.119C249.395 317.298 251.855 309.854 253.068 301.751C249.291 300.158 245.617 298.843 242.117 297.146C237.162 294.722 232.899 291.467 230.82 286.031C229.018 281.322 229.468 277.721 232.483 275.193C235.88 272.319 239.657 272.216 243.469 274.328C246.068 275.782 248.598 277.375 251.578 279.141C248.355 260.304 233.28 242.922 214.913 236.136C193.636 228.276 171.977 234.37 157.941 252.167C157.318 252.929 156.832 253.795 156.174 254.522C153.402 257.534 151.6 257.534 148.897 254.557C148.411 254.003 148.03 253.379 147.614 252.756C130.738 228.934 99.1674 226.094 76.7805 242.195C60.3889 253.933 52.0026 270.138 50.6164 291.537ZM51.4828 324.466C50.7204 325.747 50.3738 326.162 50.2698 326.612C49.5421 330.214 48.9183 333.849 48.2252 337.485C43.5469 361.307 42.7845 385.337 44.344 409.506C44.6212 413.8 46.0766 417.124 49.1609 419.824C52.2798 422.594 55.4333 425.365 58.8988 427.719C67.9436 433.848 78.0282 437.864 88.4592 440.877C124.119 451.126 160.263 452.095 196.685 445.898C213.25 443.058 229.538 438.903 244.197 430.489C262.529 419.963 261.628 420.655 262.356 400.538C263.153 378.551 260.519 356.806 257.192 335.165C256.637 331.599 255.633 328.067 254.628 323.738C253.38 325.193 252.618 325.816 252.167 326.612C234.632 357.672 208.78 379.728 177.279 395.587C170.729 398.876 163.729 401.404 156.763 403.862C154.649 404.624 151.877 404.658 149.728 403.966C122.802 395.171 99.41 380.559 79.2064 360.822C68.4288 350.227 59.28 338.42 51.4828 324.466ZM231.132 211.171C234.944 221.835 238.201 231.6 241.909 241.191C243.573 245.485 245.791 249.64 248.286 253.483C253.484 261.378 257.504 269.723 259.271 279.071C259.999 282.915 260.415 286.828 261.004 290.74C261.524 294.307 263.36 296.419 267.069 297.008C274.381 298.15 281.623 299.327 289.039 297.562C300.06 294.965 304.981 287.382 302.624 276.163C301.065 268.788 297.599 262.313 293.198 256.322C278.054 235.72 257.954 221.593 234.528 211.863C233.696 211.482 232.726 211.448 231.132 211.171ZM96.4297 205.527C90.1919 212.071 82.6718 225.056 81.8055 230.665C109.044 219.689 132.817 224.467 152.501 246.766C176.447 221.593 203.166 220.035 232.275 236.655C231.132 228.518 221.498 205.25 216.785 199.225C198.868 211.032 179.115 217.853 157.526 218.961C135.901 220.069 115.524 215.153 96.4297 205.527ZM80.2114 216.191C69.7804 220.45 62.0178 226.025 54.5324 232.015C38.0368 245.208 23.6552 260.339 13.6747 279.106C10.7291 284.646 8.58045 290.879 7.36754 297.077C5.66947 305.664 9.68944 309.854 18.2491 309.404C27.8484 308.884 36.0962 304.798 43.7202 299.847C42.5073 276.163 49.8194 256.599 66.8694 240.879C68.2902 239.598 69.4338 237.867 70.3001 236.17C73.4884 230.042 76.4341 223.844 80.2114 216.191ZM54.8096 298.392C60.3196 299.743 64.6168 298.012 68.81 296.419C71.2358 295.484 73.6964 294.03 75.4637 292.16C76.5034 291.052 76.7805 288.559 76.3647 286.966C76.1914 286.239 73.2112 285.477 71.9636 285.927C65.3099 288.351 59.5919 292.125 54.8096 298.392ZM83.1224 577.682C89.3602 577.544 97.2961 571.381 104.47 560.993C95.0782 562.343 87.1769 568.507 83.1224 577.682ZM253.311 294.653C247.593 284.542 243.85 281.391 236.642 280.353C237.959 289.598 245.271 291.329 253.311 294.653ZM237.682 571C233.939 563.07 227.354 561.616 221.325 559.331C226.904 567.226 229.434 569.026 237.682 571Z" fill="black"/>
<path d="M155.862 146.801C143.213 146.698 134.307 141.954 128.139 132.189C127.48 131.151 126.856 130.077 126.441 128.935C125.574 126.58 124.604 123.914 127.619 122.529C130.287 121.317 131.743 123.429 132.574 125.576C139.471 143.27 164.872 145.105 177.105 127.03C177.66 126.199 178.145 125.368 178.7 124.537C179.947 122.529 181.576 120.659 184.036 122.217C186.358 123.672 185.769 126.13 184.626 128.138C177.972 139.669 168.061 146.04 155.862 146.801Z" fill="black"/>
<path d="M119.96 102.723C120.099 107.155 117.257 110.791 113.376 111.103C109.494 111.414 106.861 108.956 106.791 104.974C106.687 100.23 109.841 96.2135 113.722 96.0404C117.292 95.8673 119.856 98.6374 119.96 102.723Z" fill="black"/>
<path d="M186.324 103.416C186.22 98.776 189.131 95.1058 192.839 95.1404C196.027 95.175 198.487 97.9104 198.591 101.511C198.695 105.944 195.784 109.475 191.834 109.649C188.333 109.822 186.393 107.64 186.324 103.416Z" fill="black"/>
</svg>
