<svg width="288" height="565" viewBox="0 0 288 565" fill="none" xmlns="http://www.w3.org/2000/svg">
<g clip-path="url(#clip0_2_359)">
<path d="M49.8478 409.529L38.9467 387.681L67.6688 414.114L42.3908 365.263L86.6273 419.3L45.2662 344.584L106.723 420.438L49.279 324.474L128.526 425.623L53.2919 305.503L146.347 422.746L59.0427 283.654L165.874 423.884L67.1 265.283L181.388 424.454L75.6945 245.743L198.83 421.418L80.8765 227.91L215.261 418.161L90.6402 214.693L230.206 415.284L94.7162 198.662L236.083 396.249L121.069 208.369L239.37 370.448L141.165 212.986L237.663 339.398L160.123 212.385L237.095 305.503L176.206 207.8L230.775 269.868L188.276 201.476L221.011 233.664L198.04 198.03L211.817 206.061L202.053 193.445" stroke="#F0C055" stroke-width="3" stroke-miterlimit="10" stroke-linecap="round" stroke-linejoin="round"/>
<path d="M38.5043 330.988C35.8818 332.253 34.1439 333.391 32.248 333.96C27.0661 335.478 22.8952 332.505 23.5271 327.162C23.9695 323.494 25.265 319.605 27.3188 316.569C31.2053 310.846 35.9133 305.693 40.8742 299.558C38.8835 295.574 36.6085 290.99 34.3019 286.468C28.8355 275.623 23.4639 264.746 20.5886 252.857C20.083 250.675 19.767 248.431 19.4511 246.217C18.3135 237.87 21.3153 231.388 27.856 226.139C34.5863 220.732 41.9801 216.559 49.9426 213.365C61.8233 208.591 73.7355 203.943 85.5846 199.105C87.9228 198.156 90.0082 196.575 93.168 194.741C90.2926 192.465 88.3652 191.01 86.5325 189.461C55.5354 163.217 43.244 129.922 53.1024 90.5252C62.8976 51.4125 89.1867 27.9196 128.62 19.3508C128.842 19.3192 129.063 19.256 129.284 19.1927C131.812 18.4971 134.655 18.0228 135.287 21.3112C135.983 24.7893 132.886 24.9474 130.453 25.3901C111.337 28.9946 94.5899 37.3104 81.3821 51.6971C56.7361 78.5416 49.4687 109.908 61.8233 144.183C74.1779 178.489 99.8351 198.346 135.919 202.868C184.516 208.938 228.31 174.474 234.82 125.18C241.076 77.846 209.32 34.5596 161.924 25.5482C158.606 24.9158 155.257 24.6312 151.908 24.1569C150.012 23.904 148.148 23.3032 148.211 21.0583C148.306 18.339 150.517 17.928 152.603 18.1177C157.279 18.592 162.019 18.9714 166.601 19.9516C205.655 28.2674 236.115 61.4673 241.044 101.086C244.71 130.713 236.336 156.609 216.619 178.932C215.577 180.102 214.471 181.24 213.46 182.442C213.175 182.758 213.08 183.232 212.922 183.643C214.882 187.185 216.43 191.01 218.863 194.172C221.422 197.492 224.424 200.717 227.868 203.057C247.143 216.116 264.3 231.578 280.478 248.209C288.125 256.051 289.483 262.185 284.491 271.987C280.952 278.943 276.433 285.456 271.694 291.685C265.437 299.875 258.549 307.59 251.693 315.779C253.652 317.36 255.642 318.53 257.001 320.174C259.655 323.431 262.215 326.814 264.332 330.45C265.785 332.98 264.837 335.762 262.878 337.912C260.761 340.252 257.949 340.157 255.389 339.082C252.956 338.102 250.776 336.521 247.617 334.656C247.617 337.881 247.648 340.632 247.617 343.414C247.269 360.267 247.206 377.12 246.447 393.941C246.131 401.308 244.394 408.612 243.256 415.948C242.814 418.794 241.392 420.438 238.548 421.797C227.268 427.299 215.324 430.019 203.001 431.599C201.042 431.852 199.146 432.327 196.966 432.738C196.966 434.477 196.776 435.805 196.997 437.069C201.2 462.776 205.434 488.514 209.731 514.22C210.521 518.868 211.722 523.453 212.417 528.101C212.922 531.579 214.597 533.666 217.725 535.183C226.193 539.294 230.712 546.598 233.082 555.451C233.903 558.518 233.745 561.301 231.123 563.419C228.247 565.759 225.182 565.19 222.37 563.356C215.355 558.834 211.406 552.099 209.7 544.163C206.413 528.796 203.127 513.429 200.536 497.936C196.966 476.688 194.09 455.314 190.741 433.054C159.112 436.532 127.894 434.73 96.2329 430.43C95.0638 437.797 93.7999 444.595 92.9468 451.456C90.5138 470.87 88.2388 490.284 85.9322 509.698C85.7426 511.248 85.1422 513.082 85.6794 514.346C87.8596 519.532 84.8579 522.978 81.9193 526.362C77.9064 530.978 73.2616 535.025 67.3528 536.954C64.2563 537.966 60.7806 538.503 57.5576 538.314C54.0187 538.092 51.2381 535.879 50.3218 532.211C49.3739 528.512 51.6805 526.014 54.4927 524.528C59.2007 521.998 64.1615 519.848 69.1223 517.856C71.9977 516.718 75.1574 516.244 78.4752 515.421C82.2669 486.869 86.027 458.444 89.8503 429.797C88.3652 429.386 87.1013 428.912 85.8374 428.69C69.3119 425.908 53.9555 419.647 38.7571 412.786C32.4376 409.94 29.9098 405.767 30.5418 399.127C31.7109 386.384 32.5008 373.579 33.9543 360.868C34.9654 351.161 36.8297 341.485 38.5043 330.988ZM97.6548 197.208C96.4225 198.978 95.3798 200.148 94.6847 201.508C68.6799 251.434 48.9631 303.574 40.4634 359.476C38.4727 372.535 38.1568 385.878 36.9245 399.063C36.4821 403.838 38.4095 406.684 42.8332 408.233C54.6823 412.343 66.2153 417.845 78.412 420.501C118.888 429.26 159.839 431.22 200.947 425.402C210.647 424.042 220.127 421.039 229.669 418.604C235.009 417.244 237.979 413.766 238.169 407.98C238.264 405.071 239.117 402.225 239.528 399.348C242.624 376.74 242.182 354.006 240.57 331.367C239.464 315.684 237.221 300.096 235.23 284.508C231.47 254.976 225.056 226.107 213.807 198.441C212.322 194.773 210.237 191.358 208.183 187.279C191.879 200.496 174.058 208.053 154.088 209.76C134.15 211.436 115.318 206.978 97.6548 197.208ZM225.846 208.875C225.467 209.255 225.087 209.634 224.677 209.982C237.031 242.581 240.665 276.951 245.468 312.048C247.016 310.657 247.901 310.056 248.564 309.265C256.717 299.4 264.964 289.598 272.895 279.544C275.359 276.413 276.907 272.556 278.93 269.078C282.532 262.786 280.983 257.442 275.959 252.762C264.616 242.202 253.399 231.483 241.834 221.143C236.842 216.653 231.186 212.922 225.846 208.875ZM84.2891 206.63C68.6483 212.29 53.1656 217.728 39.0415 226.108C24.949 234.455 23.2112 239.514 27.698 255.071C27.8876 255.703 28.014 256.367 28.2668 256.999C33.2592 271.006 40.0526 284.128 47.9204 298.452C57.842 266.232 69.5015 235.973 84.2891 206.63ZM29.5623 327.352C36.1977 324.917 42.1381 315.589 41.7905 308.317C36.0397 313.724 31.2053 319.225 29.5623 327.352ZM75.4734 523.579C67.2581 523.484 60.2434 526.804 57.1153 532.306C64.983 532.717 70.165 528.986 75.4734 523.579ZM226.288 558.297C225.625 550.076 221.707 544.511 215.324 542.74C217.251 549.222 219.842 554.914 226.288 558.297ZM257.412 333.138C257.127 328.11 255.832 326.529 250.05 324.284C251.503 328.3 252.956 331.873 257.412 333.138Z" fill="black"/>
<path d="M142.839 111.71C136.741 111.647 131.369 109.781 126.977 105.481C125.461 104.027 124.102 101.971 126.282 100.359C127.262 99.6315 129.726 99.9477 130.959 100.675C144.008 108.611 155.857 105.449 162.777 91.9481C162.872 91.7584 162.967 91.537 163.062 91.3473C164.136 89.1656 165.052 86.0353 168.212 87.7427C171.024 89.2605 169.634 92.0745 168.749 94.3511C164.736 104.406 153.677 111.805 142.839 111.71Z" fill="black"/>
<path d="M34.0175 107.378C32.6272 108.738 31.8372 110.161 30.8893 110.255C29.4358 110.414 27.8244 109.844 26.4341 109.212C19.1035 105.86 11.836 102.446 4.53701 99.0307C3.52589 98.5564 2.35679 98.0822 1.72484 97.2601C1.02969 96.3115 0.840107 94.9519 0.460938 93.782C1.78803 93.3709 3.36791 92.3275 4.44222 92.6753C7.60197 93.7503 10.5721 95.3945 13.6055 96.7858C18.9139 99.1888 24.2538 101.465 29.499 103.963C31.0157 104.659 32.2164 105.955 34.0175 107.378Z" fill="black"/>
<path d="M48.3311 59.6334C47.8571 62.7637 45.9613 63.902 44.413 62.7005C36.482 56.5348 28.7407 50.0529 21.0625 43.571C20.5569 43.1283 20.5885 40.9466 21.0941 40.5988C22.0104 39.9664 23.4639 39.9032 24.6646 40.0297C25.4229 40.1245 26.1497 40.9782 26.8448 41.5157C33.0063 46.3851 39.1678 51.2544 45.2346 56.2186C46.5616 57.262 47.5412 58.7481 48.3311 59.6334Z" fill="black"/>
<path d="M55.6301 0C56.4833 0.790475 57.9051 1.54933 58.6003 2.75085C62.708 9.95999 66.6261 17.264 70.5757 24.568C71.0813 25.5165 71.5237 26.6548 71.5553 27.6982C71.6185 29.6586 69.4066 30.7969 67.7004 29.7851C67.1316 29.4373 66.5629 28.963 66.2469 28.4255C61.8232 20.6156 57.3996 12.8373 53.1339 4.96418C52.028 2.90895 52.4704 1.01181 55.6301 0Z" fill="black"/>
<path d="M109.757 72.8502C109.693 76.5496 106.439 80.0909 103.248 79.9961C100.341 79.9328 98.034 77.3717 98.0024 74.2414C97.9708 70.2258 101.415 66.4631 104.859 66.7477C107.64 67.0007 109.82 69.7199 109.757 72.8502Z" fill="black"/>
<path d="M184.548 76.9923C184.579 80.4704 182.494 83.0631 179.713 83.0631C176.838 83.0631 173.678 79.9012 173.647 76.9923C173.615 73.7671 176.491 70.8266 179.524 70.9847C182.399 71.1428 184.516 73.6407 184.548 76.9923Z" fill="black"/>
</g>
<defs>
<clipPath id="clip0_2_359">
<rect width="287" height="565" fill="white" transform="translate(0.460938)"/>
</clipPath>
</defs>
</svg>
