<svg width="365" height="633" viewBox="0 0 365 633" fill="none" xmlns="http://www.w3.org/2000/svg">
<path d="M85.3501 488.681L73.0378 473.475L103.116 499.09L76.6629 451.776L122.973 504.082L79.6675 431.741L144.038 505.191L83.8805 412.261L166.899 510.216L88.0934 393.891L185.547 507.443L94.1026 372.747L205.991 508.552L98.5768 351.635L222.222 509.107L107.591 332.71L240.511 506.138L113.012 315.481L257.722 502.973L120.981 300.733L272.223 492.988L131.464 290.454L282.674 478.239L159.061 299.852L287.768 451.907L180.125 304.289L285.972 421.855L199.982 303.735L281.432 387.332L216.801 299.297L273.954 359.401L229.44 293.162L263.731 324.324L239.662 289.834L254.097 297.633L243.875 285.364" stroke="#F0C055" stroke-width="3" stroke-miterlimit="10" stroke-linecap="round" stroke-linejoin="round"/>
<path d="M246.782 512.664C250.603 545.359 259.257 576.422 265.43 608.661C269.708 607.584 273.17 606.409 276.73 605.855C282.673 604.941 288.65 603.864 294.627 603.832C300.995 603.799 305.11 607.519 305.11 611.858C305.077 615.905 301.517 619.265 295.345 620.049C285.384 621.354 275.423 620.766 265.56 618.646C262.131 617.928 260.662 615.872 259.943 612.511C256.971 598.448 253.509 584.482 250.733 570.386C247.304 552.864 244.365 535.276 241.197 517.689C241.034 516.808 240.805 515.927 240.446 514.328C204.26 522.518 168.172 522.322 131.301 514.426C130.68 516.645 129.962 518.733 129.537 520.919C124.181 548.459 118.76 575.998 113.698 603.603C112.653 609.346 110.465 615.252 113.469 621.256C113.861 622.006 112.424 624.323 111.248 625.106C101.81 631.502 91.3919 633.851 80.1247 631.795C78.5897 631.502 76.9894 630.849 75.6831 629.935C70.9476 626.705 70.9803 621.386 76.075 618.841C79.3082 617.242 83.1293 616.394 86.7544 616.133C92.6983 615.709 98.7074 616.002 104.455 616.002C111.183 581.578 117.845 547.545 124.573 512.957C122.32 512.142 119.936 511.391 117.649 510.445C109.289 507.019 100.765 503.919 92.6656 499.938C87.5055 497.426 82.868 493.738 78.2305 490.312C71.1436 485.026 67.9104 478.337 67.9757 468.94C68.1716 441.074 72.2866 413.958 80.19 387.332C84.207 373.791 88.322 360.217 92.9269 346.839C96.1601 337.441 100.275 328.338 104.227 318.516C99.5239 311.892 94.6904 304.55 89.3018 297.633C64.7425 266.047 43.9389 231.982 23.1027 197.916C20.9799 194.457 18.008 191.292 14.8727 188.714C8.92887 183.852 4.68327 177.979 2.1359 170.801C1.51538 169.071 1.09082 167.211 0.960186 165.417C0.568283 160.49 2.39715 156.998 5.89162 155.595C9.32078 154.192 14.6115 155.465 16.9956 159.25C19.5756 163.328 21.5025 167.831 23.266 172.334C24.2784 174.879 24.9316 177.816 24.7683 180.492C24.3764 187.474 27.7729 192.956 31.1694 198.471C51.1565 230.872 71.1109 263.274 94.2332 293.619C98.8381 299.689 102.986 306.084 107.754 312.936C113.241 303.702 118.303 295.186 123.561 286.376C122.156 285.331 120.719 284.222 119.217 283.21C67.5511 248.721 57.6229 180.655 97.9236 133.08C124.181 102.115 158.342 87.4639 198.675 91.3794C241.23 95.4908 273.627 116.57 289.042 157.553C304.13 197.688 293.875 233.711 265.397 264.938C260.89 269.865 255.599 274.074 250.635 278.61C256.938 291.009 263.242 303.31 269.675 315.938C270.557 314.633 271.439 313.589 272.092 312.382C287.54 283.537 303.052 254.757 318.271 225.815C322.909 217.004 326.665 207.705 331.008 198.764C334.013 192.565 335.319 186.137 335.515 179.284C335.744 171.257 337.801 163.655 342.504 157.031C343.941 155.008 345.77 152.985 347.86 151.712C352.661 148.743 358.997 151.386 359.65 156.965C360.074 160.685 359.487 164.992 357.919 168.353C355.796 172.889 352.596 177.033 349.33 180.916C344.66 186.463 340.936 192.499 337.965 199.123C324.836 228.327 311.086 257.237 294.659 284.777C287.54 296.719 281.073 309.086 274.019 321.094C272.353 323.933 272.974 326.217 273.725 328.958C278.95 348.209 284.894 367.298 288.944 386.778C295.116 416.471 296.063 446.588 292.7 476.803C292.112 482.122 290.054 486.56 286.429 490.41C279.114 498.176 270.1 503.364 260.4 507.443C255.991 509.238 251.648 510.804 246.782 512.664ZM244.691 282.297C241.785 283.896 239.76 285.038 237.735 286.147C216.115 297.731 193.189 302.919 168.63 300.341C156.97 299.134 145.834 296.328 135.056 291.759C129.439 289.377 128.982 289.573 125.586 294.794C124.965 295.773 124.344 296.752 123.789 297.763C111.967 318.059 101.19 338.779 94.9191 361.587C93.2535 367.624 91.2612 373.563 89.367 379.534C79.9614 409.358 73.9522 439.671 74.7034 471.126C74.834 476.477 76.4669 480.262 80.4186 483.721C90.9347 492.923 103.182 498.861 116.278 503.136C151.125 514.491 186.755 516.71 222.876 511.032C237.833 508.683 252.53 504.996 265.756 497.393C271.504 494.097 276.632 489.594 281.792 485.32C284.306 483.232 285.711 480.393 285.907 476.836C286.364 468.515 287.67 460.227 287.834 451.907C288.519 419.44 283.882 387.691 274.999 356.465C268.5 333.656 261.38 311.174 249.656 290.422C248.153 287.844 246.52 285.331 244.691 282.297ZM288.879 193.87C288.585 165.156 278.493 142.152 258.343 123.911C238.16 105.639 214.09 97.1876 186.886 97.8728C151.614 98.7538 122.352 112.393 100.569 140.259C60.1049 191.977 80.5819 264.709 142.209 287.354C180.223 301.32 216.05 295.284 248.251 271.17C274.182 251.69 287.997 225.195 288.879 193.87ZM6.74078 161.599C7.42661 170.703 11.019 177 17.2568 182.841C17.8773 172.53 14.1543 164.34 6.74078 161.599ZM352.171 156.378C344.496 162.252 342.929 169.887 341.426 178.11C349.689 172.465 354 164.34 352.171 156.378ZM297.011 611.5C290.152 609.933 283.457 609.835 277.056 613.164C283.849 614.208 290.609 615.448 297.011 611.5ZM80.8431 624.747C87.1136 626.216 93.2208 626.411 98.8707 622.953C92.6656 621.55 86.6237 621.484 80.8431 624.747Z" fill="black"/>
<path d="M117.16 76.0434C117.258 76.5981 116.017 77.936 115.2 79.1759C113.894 78.1644 111.836 77.3813 111.444 76.1087C109.909 70.79 108.962 65.2756 107.689 59.8916C104.88 48.2102 101.941 36.5287 99.1974 24.8145C98.6748 22.6283 98.4462 20.1811 98.9034 18.0275C99.132 16.9507 101.092 15.9392 102.463 15.5477C103.051 15.3519 104.717 16.6244 104.913 17.4402C109.028 36.6265 113.012 55.8782 117.16 76.0434Z" fill="black"/>
<path d="M318.206 37.2138C317.03 38.9432 316.051 40.7378 314.777 42.2714C305.404 53.7245 295.966 65.1124 286.56 76.5328C284.502 79.0453 282.608 81.6557 280.616 84.2008C279.31 85.8649 277.775 87.9533 275.554 86.3544C272.974 84.4945 274.574 82.2104 276.011 80.3505C283.751 70.2679 291.459 60.12 299.329 50.1679C303.183 45.2734 307.331 40.5421 311.609 36.0391C312.589 34.995 314.744 34.8645 316.377 34.7013C316.802 34.6687 317.39 36.0391 318.206 37.2138Z" fill="black"/>
<path d="M206.416 8.46691C204.358 24.9776 202.333 41.4883 200.276 57.9664C200.178 58.8801 200.145 59.9568 199.655 60.6094C199.035 61.4578 197.696 62.6325 197.141 62.4367C196.063 62.0452 194.887 60.9031 194.495 59.8263C194.071 58.619 194.365 57.0854 194.528 55.715C196.291 39.4 198.022 23.0851 199.884 6.80279C200.178 4.29029 199.459 0.211554 203.476 0.537852C208.049 0.896781 205.991 5.04077 206.252 7.74905C206.285 7.97746 206.22 8.20587 206.187 8.43428C206.285 8.43428 206.35 8.46691 206.416 8.46691Z" fill="black"/>
<path d="M364.908 101.56C363.863 102.637 362.654 104.268 361.12 105.508C352.53 112.524 343.843 119.474 335.189 126.424C332.837 128.316 330.551 130.242 328.167 132.069C327.089 132.885 325.881 133.961 324.64 134.092C323.529 134.222 321.962 133.537 321.178 132.689C320.688 132.134 320.917 130.437 321.407 129.589C322.092 128.447 323.235 127.533 324.313 126.685C335.287 117.81 346.292 108.967 357.298 100.157C358.376 99.3085 359.552 98.3948 360.793 98.0359C362.916 97.4812 364.385 98.3948 364.908 101.56Z" fill="black"/>
<path d="M24.4091 73.1719C25.2582 73.7592 26.7278 74.4771 27.7729 75.5865C37.2766 85.3754 46.6823 95.2297 56.1206 105.051C56.9044 105.867 57.9495 106.781 58.1454 107.792C58.374 108.967 58.2434 110.794 57.4923 111.447C56.7411 112.099 54.8143 112.067 53.7692 111.577C52.3649 110.925 51.2545 109.587 50.1441 108.412C41.3263 99.2431 32.5411 90.0741 23.7559 80.9051C22.8088 79.9263 21.7638 78.9147 21.1759 77.7074C20.1308 75.5865 21.5678 73.2371 24.4091 73.1719Z" fill="black"/>
<path d="M188.355 236.55C174.41 236.452 164.188 231.557 155.893 222.649C147.924 214.035 143.515 203.691 141.817 192.173C141.588 190.574 141.458 188.877 141.784 187.344C142.339 184.603 145.279 183.298 147.761 184.668C148.936 185.321 149.851 186.463 150.863 187.409C172.157 207.999 202.464 209.402 225.488 190.868C226.043 190.444 226.566 189.954 227.089 189.53C229.015 187.931 230.975 185.517 233.718 187.474C236.364 189.367 235.025 192.14 234.208 194.49C232.706 198.862 231.334 203.332 229.277 207.444C224.117 217.885 216.54 226.173 206.089 231.688C200.047 234.886 193.581 236.484 188.355 236.55ZM150.667 196.709C151.092 212.175 167.356 228.36 183.457 229.893C200.406 231.525 220.002 217.722 224.084 200.428C198.61 214.981 174.214 213.774 150.667 196.709Z" fill="black"/>
<path d="M215.919 160.914C216.05 156.248 219.512 152.299 223.3 152.462C227.415 152.626 231.04 156.574 230.942 160.783C230.844 165.58 227.088 169.691 222.974 169.561C218.891 169.463 215.789 165.678 215.919 160.914Z" fill="black"/>
<path d="M162 160.49C162.098 165.09 158.93 168.614 154.554 168.778C150.733 168.908 147.924 165.678 147.695 160.849C147.467 156.215 150.602 152.267 154.652 152.104C158.603 151.908 161.869 155.66 162 160.49Z" fill="black"/>
</svg>
